<svg width="38" height="41" viewBox="0 0 38 41" fill="none" xmlns="http://www.w3.org/2000/svg">
<path d="M25.3333 13.3079V27.692C25.3341 28.2599 25.1858 28.8164 24.9056 29.2971C24.6254 29.7778 24.2247 30.1631 23.75 30.4083C23.1867 30.6953 22.5601 30.8059 21.9414 30.7274C21.3227 30.6488 20.737 30.3844 20.2508 29.9641L12.1758 22.772C11.874 22.4898 11.6319 22.1408 11.466 21.7488C11.3001 21.3568 11.2143 20.9309 11.2143 20.5C11.2143 20.069 11.3001 19.6431 11.466 19.2511C11.6319 18.8591 11.874 18.5101 12.1758 18.2279L20.2508 11.0358C20.737 10.6155 21.3227 10.3511 21.9414 10.2725C22.5601 10.194 23.1867 10.3046 23.75 10.5916C24.2247 10.8368 24.6254 11.2221 24.9056 11.7028C25.1858 12.1835 25.3341 12.74 25.3333 13.3079Z" fill="black"/>
</svg>
