<svg width="38" height="41" viewBox="0 0 38 41" fill="none" xmlns="http://www.w3.org/2000/svg">
<path d="M12.6667 27.6921L12.6667 13.308C12.6659 12.7401 12.8142 12.1836 13.0944 11.7029C13.3747 11.2222 13.7753 10.8369 14.25 10.5917C14.8133 10.3047 15.44 10.1941 16.0586 10.2726C16.6773 10.3512 17.2631 10.6156 17.7492 11.0359L25.8242 18.228C26.126 18.5102 26.3681 18.8592 26.534 19.2512C26.6999 19.6432 26.7858 20.0691 26.7858 20.5C26.7858 20.931 26.6999 21.3569 26.534 21.7489C26.3681 22.1409 26.126 22.4899 25.8242 22.7721L17.7492 29.9642C17.2631 30.3845 16.6773 30.6489 16.0586 30.7275C15.44 30.806 14.8133 30.6954 14.25 30.4084C13.7753 30.1632 13.3747 29.7779 13.0944 29.2972C12.8142 28.8165 12.6659 28.26 12.6667 27.6921Z" fill="black"/>
</svg>
