<svg width="24" height="24" viewBox="0 0 24 24" fill="none" xmlns="http://www.w3.org/2000/svg">
<path d="M14.0105 18C13.7449 17.9999 13.4901 17.8944 13.3023 17.7067L8.29331 12.7016C8.1055 12.5139 8 12.2593 8 11.9938C8 11.7284 8.1055 11.4738 8.29331 11.2861L13.3023 6.281C13.4912 6.09865 13.7443 5.99776 14.0069 6.00004C14.2696 6.00232 14.5208 6.10759 14.7066 6.29319C14.8923 6.47879 14.9977 6.72986 15 6.99233C15.0022 7.25479 14.9013 7.50765 14.7188 7.69645L10.4141 11.9938L14.7118 16.2983C14.849 16.4382 14.9422 16.6153 14.9797 16.8076C15.0172 16.9999 14.9974 17.199 14.9228 17.3802C14.8481 17.5614 14.7219 17.7167 14.5597 17.8269C14.3976 17.9371 14.2066 17.9972 14.0105 18Z" fill="#4B4B4B"/>
</svg>
