<svg width="42" height="40" viewBox="0 0 42 40" fill="none" xmlns="http://www.w3.org/2000/svg">
<path d="M20.8733 0C9.34191 0 -0.00634766 8.9544 -0.00634766 20C-0.00634766 29.3792 6.73529 37.2496 15.8296 39.4112V26.112H11.5243V20H15.8296V17.3664C15.8296 10.5592 19.046 7.404 26.0231 7.404C27.346 7.404 29.6286 7.6528 30.5624 7.9008V13.4408C30.0696 13.3912 29.2135 13.3664 28.1503 13.3664C24.7269 13.3664 23.404 14.6088 23.404 17.8384V20H30.2241L29.0523 26.112H23.404V39.8536C33.7427 38.6576 41.7539 30.2256 41.7539 20C41.753 8.9544 32.4048 0 20.8733 0Z" fill="white"/>
</svg>
