<svg width="43" height="40" viewBox="0 0 43 40" fill="none" xmlns="http://www.w3.org/2000/svg">
<g clip-path="url(#clip0_38_429)">
<path d="M21.5125 3.60156C27.0913 3.60156 27.7519 3.625 29.9459 3.71875C31.985 3.80469 33.0861 4.13281 33.8201 4.40625C34.7907 4.76563 35.4921 5.20313 36.218 5.89844C36.9521 6.60156 37.4006 7.26563 37.7758 8.19531C38.0613 8.89844 38.4038 9.96094 38.4936 11.9062C38.5914 14.0156 38.6159 14.6484 38.6159 19.9844C38.6159 25.3281 38.5914 25.9609 38.4936 28.0625C38.4038 30.0156 38.0613 31.0703 37.7758 31.7734C37.4006 32.7031 36.9439 33.375 36.218 34.0703C35.484 34.7734 34.7907 35.2031 33.8201 35.5625C33.0861 35.8359 31.9768 36.1641 29.9459 36.25C27.7438 36.3438 27.0831 36.3672 21.5125 36.3672C15.9337 36.3672 15.2731 36.3438 13.0791 36.25C11.04 36.1641 9.93896 35.8359 9.2049 35.5625C8.23432 35.2031 7.5329 34.7656 6.807 34.0703C6.07295 33.3672 5.62436 32.7031 5.24918 31.7734C4.96372 31.0703 4.62116 30.0078 4.53144 28.0625C4.43357 25.9531 4.4091 25.3203 4.4091 19.9844C4.4091 14.6406 4.43357 14.0078 4.53144 11.9062C4.62116 9.95312 4.96372 8.89844 5.24918 8.19531C5.62436 7.26563 6.08111 6.59375 6.807 5.89844C7.54105 5.19531 8.23432 4.76563 9.2049 4.40625C9.93896 4.13281 11.0482 3.80469 13.0791 3.71875C15.2731 3.625 15.9337 3.60156 21.5125 3.60156ZM21.5125 0C15.844 0 15.1344 0.0234375 12.9078 0.117188C10.6893 0.210938 9.16412 0.554687 7.84283 1.04688C6.46444 1.5625 5.29812 2.24219 4.13995 3.35938C2.97362 4.46875 2.26404 5.58594 1.72573 6.89844C1.2119 8.17188 0.853028 9.625 0.755154 11.75C0.657281 13.8906 0.632812 14.5703 0.632812 20C0.632812 25.4297 0.657281 26.1094 0.755154 28.2422C0.853028 30.3672 1.2119 31.8281 1.72573 33.0938C2.26404 34.4141 2.97362 35.5312 4.13995 36.6406C5.29812 37.75 6.46445 38.4375 7.83467 38.9453C9.16412 39.4375 10.6812 39.7812 12.8996 39.875C15.1263 39.9688 15.8358 39.9922 21.5043 39.9922C27.1729 39.9922 27.8824 39.9688 30.1091 39.875C32.3275 39.7812 33.8527 39.4375 35.174 38.9453C36.5443 38.4375 37.7106 37.75 38.8687 36.6406C40.0269 35.5312 40.7447 34.4141 41.2748 33.1016C41.7886 31.8281 42.1475 30.375 42.2454 28.25C42.3433 26.1172 42.3677 25.4375 42.3677 20.0078C42.3677 14.5781 42.3433 13.8984 42.2454 11.7656C42.1475 9.64063 41.7886 8.17969 41.2748 6.91406C40.761 5.58594 40.0514 4.46875 38.8851 3.35938C37.7269 2.25 36.5606 1.5625 35.1903 1.05469C33.8609 0.5625 32.3438 0.21875 30.1254 0.125C27.8906 0.0234375 27.181 0 21.5125 0Z" fill="white"/>
<path d="M21.5124 9.72656C15.5911 9.72656 10.7871 14.3281 10.7871 20C10.7871 25.6719 15.5911 30.2734 21.5124 30.2734C27.4338 30.2734 32.2377 25.6719 32.2377 20C32.2377 14.3281 27.4338 9.72656 21.5124 9.72656ZM21.5124 26.6641C17.6709 26.6641 14.5552 23.6797 14.5552 20C14.5552 16.3203 17.6709 13.3359 21.5124 13.3359C25.354 13.3359 28.4696 16.3203 28.4696 20C28.4696 23.6797 25.354 26.6641 21.5124 26.6641Z" fill="white"/>
<path d="M35.1658 9.32032C35.1658 10.6484 34.0403 11.7188 32.6619 11.7188C31.2753 11.7188 30.158 10.6406 30.158 9.32032C30.158 7.99219 31.2835 6.92188 32.6619 6.92188C34.0403 6.92188 35.1658 8 35.1658 9.32032Z" fill="white"/>
</g>
<defs>
<clipPath id="clip0_38_429">
<rect width="41.7594" height="40" fill="white" transform="translate(0.632812)"/>
</clipPath>
</defs>
</svg>
